<mxfile host="Electron" modified="2023-11-27T09:16:55.492Z" agent="Mozilla/5.0 (Windows NT 10.0; Win64; x64) AppleWebKit/537.36 (KHTML, like Gecko) draw.io/22.0.2 Chrome/114.0.5735.289 Electron/25.8.4 Safari/537.36" etag="BRJlPxSIqxEW7uLd2m9A" version="22.0.2" type="device">
  <diagram id="C5RBs43oDa-KdzZeNtuy" name="Page-1">
    <mxGraphModel dx="2060" dy="713" grid="1" gridSize="10" guides="1" tooltips="1" connect="1" arrows="1" fold="1" page="1" pageScale="1" pageWidth="827" pageHeight="1169" background="none" math="0" shadow="0">
      <root>
        <mxCell id="WIyWlLk6GJQsqaUBKTNV-0" />
        <mxCell id="WIyWlLk6GJQsqaUBKTNV-1" parent="WIyWlLk6GJQsqaUBKTNV-0" />
        <mxCell id="O6kwRCL_06sW0Yhjf2Mc-2" value="начало" style="ellipse;whiteSpace=wrap;html=1;strokeColor=#36393d;fillColor=#eeeeee;fontColor=#000000;" parent="WIyWlLk6GJQsqaUBKTNV-1" vertex="1">
          <mxGeometry x="-770" y="30" width="120" height="50" as="geometry" />
        </mxCell>
        <mxCell id="CJra_WSzJUt3smpGOyG3-4" value="&lt;font style=&quot;font-size: 12px;&quot;&gt;&lt;span style=&quot;&quot;&gt;Считывание&lt;/span&gt;&lt;br&gt;&lt;font style=&quot;font-size: 12px;&quot;&gt;i &amp;lt; N&lt;/font&gt;&lt;/font&gt;" style="strokeWidth=1;html=1;shape=mxgraph.flowchart.loop_limit;whiteSpace=wrap;strokeColor=#36393d;fillColor=#eeeeee;fontColor=#000000;" parent="WIyWlLk6GJQsqaUBKTNV-1" vertex="1">
          <mxGeometry x="-770" y="180" width="120" height="70" as="geometry" />
        </mxCell>
        <mxCell id="CJra_WSzJUt3smpGOyG3-6" value="" style="rounded=0;html=1;jettySize=auto;orthogonalLoop=1;fontSize=11;endArrow=block;endFill=0;endSize=8;strokeWidth=1;shadow=0;labelBackgroundColor=none;edgeStyle=orthogonalEdgeStyle;strokeColor=#36393d;fillColor=#eeeeee;fontColor=#000000;" parent="WIyWlLk6GJQsqaUBKTNV-1" edge="1">
          <mxGeometry relative="1" as="geometry">
            <mxPoint x="-710.17" y="250" as="sourcePoint" />
            <mxPoint x="-709.9" y="280" as="targetPoint" />
          </mxGeometry>
        </mxCell>
        <mxCell id="CJra_WSzJUt3smpGOyG3-8" value="Считать&lt;br&gt;arr[i]" style="shape=parallelogram;perimeter=parallelogramPerimeter;whiteSpace=wrap;html=1;fixedSize=1;strokeColor=#36393d;fillColor=#eeeeee;fontColor=#000000;" parent="WIyWlLk6GJQsqaUBKTNV-1" vertex="1">
          <mxGeometry x="-770" y="280" width="120" height="50" as="geometry" />
        </mxCell>
        <mxCell id="CJra_WSzJUt3smpGOyG3-32" value="" style="rounded=0;html=1;jettySize=auto;orthogonalLoop=1;fontSize=11;endArrow=block;endFill=0;endSize=8;strokeWidth=1;shadow=0;labelBackgroundColor=none;edgeStyle=orthogonalEdgeStyle;strokeColor=#36393d;fillColor=#eeeeee;fontColor=#000000;" parent="WIyWlLk6GJQsqaUBKTNV-1" edge="1">
          <mxGeometry relative="1" as="geometry">
            <mxPoint x="-710.34" y="80" as="sourcePoint" />
            <mxPoint x="-710.07" y="110" as="targetPoint" />
          </mxGeometry>
        </mxCell>
        <mxCell id="CJra_WSzJUt3smpGOyG3-35" value="" style="rounded=0;html=1;jettySize=auto;orthogonalLoop=1;fontSize=11;endArrow=block;endFill=0;endSize=8;strokeWidth=1;shadow=0;labelBackgroundColor=none;edgeStyle=orthogonalEdgeStyle;strokeColor=#36393d;fillColor=#eeeeee;fontColor=#000000;" parent="WIyWlLk6GJQsqaUBKTNV-1" edge="1">
          <mxGeometry relative="1" as="geometry">
            <mxPoint x="-710.17" y="150" as="sourcePoint" />
            <mxPoint x="-709.9" y="180" as="targetPoint" />
          </mxGeometry>
        </mxCell>
        <mxCell id="gXV8-5lS1U5zjnlFUvk6-14" value="&lt;font style=&quot;font-size: 10px;&quot;&gt;abs(arr[j])&amp;lt;=abs(arr[num])&lt;/font&gt;" style="rhombus;whiteSpace=wrap;html=1;shadow=0;fontFamily=Helvetica;fontSize=12;align=center;strokeWidth=1;spacing=6;spacingTop=-4;strokeColor=#36393d;fillColor=#eeeeee;fontColor=#000000;" parent="WIyWlLk6GJQsqaUBKTNV-1" vertex="1">
          <mxGeometry x="-580" y="210" width="120" height="70" as="geometry" />
        </mxCell>
        <mxCell id="Kg9K-jLbq-SvP9runcIR-1" value="" style="rounded=0;html=1;jettySize=auto;orthogonalLoop=1;fontSize=11;endArrow=block;endFill=0;endSize=8;strokeWidth=1;shadow=0;labelBackgroundColor=none;edgeStyle=orthogonalEdgeStyle;strokeColor=#36393d;fillColor=#eeeeee;fontColor=#000000;" parent="WIyWlLk6GJQsqaUBKTNV-1" edge="1">
          <mxGeometry relative="1" as="geometry">
            <mxPoint x="-710.1700000000001" y="330" as="sourcePoint" />
            <mxPoint x="-709.9000000000001" y="360" as="targetPoint" />
          </mxGeometry>
        </mxCell>
        <mxCell id="Kg9K-jLbq-SvP9runcIR-3" value="" style="rounded=0;html=1;jettySize=auto;orthogonalLoop=1;fontSize=11;endArrow=block;endFill=0;endSize=8;strokeWidth=1;shadow=0;labelBackgroundColor=none;edgeStyle=orthogonalEdgeStyle;strokeColor=#36393d;fillColor=#eeeeee;fontColor=#000000;" parent="WIyWlLk6GJQsqaUBKTNV-1" edge="1">
          <mxGeometry relative="1" as="geometry">
            <mxPoint x="-710.1700000000001" y="400" as="sourcePoint" />
            <mxPoint x="-709.9000000000001" y="430" as="targetPoint" />
          </mxGeometry>
        </mxCell>
        <mxCell id="Kg9K-jLbq-SvP9runcIR-16" value="Считывание" style="strokeWidth=1;html=1;shape=mxgraph.flowchart.loop_limit;whiteSpace=wrap;strokeColor=#36393d;fillColor=#eeeeee;fontColor=#000000;direction=west;" parent="WIyWlLk6GJQsqaUBKTNV-1" vertex="1">
          <mxGeometry x="-770" y="430" width="120" height="70" as="geometry" />
        </mxCell>
        <mxCell id="Kg9K-jLbq-SvP9runcIR-17" value="" style="rounded=0;html=1;jettySize=auto;orthogonalLoop=1;fontSize=11;endArrow=block;endFill=0;endSize=8;strokeWidth=1;shadow=0;labelBackgroundColor=none;edgeStyle=orthogonalEdgeStyle;strokeColor=#36393d;fillColor=#eeeeee;fontColor=#000000;" parent="WIyWlLk6GJQsqaUBKTNV-1" edge="1">
          <mxGeometry relative="1" as="geometry">
            <mxPoint x="-520" y="530" as="sourcePoint" />
            <mxPoint x="-520" y="560" as="targetPoint" />
          </mxGeometry>
        </mxCell>
        <mxCell id="Kg9K-jLbq-SvP9runcIR-18" value="конец" style="ellipse;whiteSpace=wrap;html=1;strokeColor=#36393d;fillColor=#eeeeee;fontColor=#000000;" parent="WIyWlLk6GJQsqaUBKTNV-1" vertex="1">
          <mxGeometry x="-580" y="640" width="120" height="50" as="geometry" />
        </mxCell>
        <mxCell id="SMtHybRJAJT8ehfguQuV-0" value="CONST N=10&lt;br&gt;i = 1" style="rounded=0;whiteSpace=wrap;html=1;strokeColor=#36393d;fillColor=#eeeeee;fontColor=#000000;" parent="WIyWlLk6GJQsqaUBKTNV-1" vertex="1">
          <mxGeometry x="-770" y="110" width="120" height="40" as="geometry" />
        </mxCell>
        <mxCell id="SMtHybRJAJT8ehfguQuV-1" value="i = i + 1" style="rounded=0;whiteSpace=wrap;html=1;strokeColor=#36393d;fillColor=#eeeeee;fontColor=#000000;" parent="WIyWlLk6GJQsqaUBKTNV-1" vertex="1">
          <mxGeometry x="-770" y="360" width="120" height="40" as="geometry" />
        </mxCell>
        <mxCell id="SMtHybRJAJT8ehfguQuV-2" value="" style="rounded=0;html=1;jettySize=auto;orthogonalLoop=1;fontSize=11;endArrow=block;endFill=0;endSize=8;strokeWidth=1;shadow=0;labelBackgroundColor=none;edgeStyle=orthogonalEdgeStyle;strokeColor=#36393d;fillColor=#eeeeee;fontColor=#000000;exitX=0.5;exitY=0;exitDx=0;exitDy=0;exitPerimeter=0;" parent="WIyWlLk6GJQsqaUBKTNV-1" source="Kg9K-jLbq-SvP9runcIR-16" edge="1">
          <mxGeometry relative="1" as="geometry">
            <mxPoint x="-710.2900000000001" y="570" as="sourcePoint" />
            <mxPoint x="-520" y="40" as="targetPoint" />
            <Array as="points">
              <mxPoint x="-710" y="520" />
              <mxPoint x="-630" y="520" />
              <mxPoint x="-630" y="20" />
              <mxPoint x="-520" y="20" />
            </Array>
          </mxGeometry>
        </mxCell>
        <mxCell id="SMtHybRJAJT8ehfguQuV-3" value="num = 1&lt;br&gt;j = 1" style="rounded=0;whiteSpace=wrap;html=1;strokeColor=#36393d;fillColor=#eeeeee;fontColor=#000000;" parent="WIyWlLk6GJQsqaUBKTNV-1" vertex="1">
          <mxGeometry x="-580" y="40" width="120" height="40" as="geometry" />
        </mxCell>
        <mxCell id="SMtHybRJAJT8ehfguQuV-4" value="Поиск элемента&lt;br&gt;j &amp;lt; N" style="strokeWidth=1;html=1;shape=mxgraph.flowchart.loop_limit;whiteSpace=wrap;strokeColor=#36393d;fillColor=#eeeeee;fontColor=#000000;" parent="WIyWlLk6GJQsqaUBKTNV-1" vertex="1">
          <mxGeometry x="-580" y="110" width="120" height="70" as="geometry" />
        </mxCell>
        <mxCell id="SMtHybRJAJT8ehfguQuV-5" value="" style="rounded=0;html=1;jettySize=auto;orthogonalLoop=1;fontSize=11;endArrow=block;endFill=0;endSize=8;strokeWidth=1;shadow=0;labelBackgroundColor=none;edgeStyle=orthogonalEdgeStyle;strokeColor=#36393d;fillColor=#eeeeee;fontColor=#000000;" parent="WIyWlLk6GJQsqaUBKTNV-1" edge="1">
          <mxGeometry relative="1" as="geometry">
            <mxPoint x="-520.5" y="80" as="sourcePoint" />
            <mxPoint x="-520.23" y="110" as="targetPoint" />
          </mxGeometry>
        </mxCell>
        <mxCell id="SMtHybRJAJT8ehfguQuV-6" value="" style="rounded=0;html=1;jettySize=auto;orthogonalLoop=1;fontSize=11;endArrow=block;endFill=0;endSize=8;strokeWidth=1;shadow=0;labelBackgroundColor=none;edgeStyle=orthogonalEdgeStyle;strokeColor=#36393d;fillColor=#eeeeee;fontColor=#000000;" parent="WIyWlLk6GJQsqaUBKTNV-1" edge="1">
          <mxGeometry relative="1" as="geometry">
            <mxPoint x="-520.29" y="180" as="sourcePoint" />
            <mxPoint x="-520.02" y="210" as="targetPoint" />
          </mxGeometry>
        </mxCell>
        <mxCell id="SMtHybRJAJT8ehfguQuV-7" value="" style="rounded=0;html=1;jettySize=auto;orthogonalLoop=1;fontSize=11;endArrow=block;endFill=0;endSize=8;strokeWidth=1;shadow=0;labelBackgroundColor=none;edgeStyle=orthogonalEdgeStyle;strokeColor=#36393d;fillColor=#eeeeee;fontColor=#000000;exitX=0.5;exitY=1;exitDx=0;exitDy=0;" parent="WIyWlLk6GJQsqaUBKTNV-1" source="gXV8-5lS1U5zjnlFUvk6-14" edge="1">
          <mxGeometry relative="1" as="geometry">
            <mxPoint x="-520.4199999999998" y="280" as="sourcePoint" />
            <mxPoint x="-520" y="320" as="targetPoint" />
            <Array as="points" />
          </mxGeometry>
        </mxCell>
        <mxCell id="SMtHybRJAJT8ehfguQuV-8" value="Да" style="text;html=1;align=center;verticalAlign=middle;resizable=0;points=[];autosize=1;strokeColor=none;fillColor=none;fontColor=#36393d;" parent="WIyWlLk6GJQsqaUBKTNV-1" vertex="1">
          <mxGeometry x="-560" y="270" width="40" height="30" as="geometry" />
        </mxCell>
        <mxCell id="SMtHybRJAJT8ehfguQuV-9" value="num = j" style="rounded=0;whiteSpace=wrap;html=1;strokeColor=#36393d;fillColor=#eeeeee;fontColor=#000000;" parent="WIyWlLk6GJQsqaUBKTNV-1" vertex="1">
          <mxGeometry x="-580" y="320" width="120" height="40" as="geometry" />
        </mxCell>
        <mxCell id="SMtHybRJAJT8ehfguQuV-10" value="Поиск элемента" style="strokeWidth=1;html=1;shape=mxgraph.flowchart.loop_limit;whiteSpace=wrap;strokeColor=#36393d;fillColor=#eeeeee;fontColor=#000000;direction=west;" parent="WIyWlLk6GJQsqaUBKTNV-1" vertex="1">
          <mxGeometry x="-580" y="460" width="120" height="70" as="geometry" />
        </mxCell>
        <mxCell id="SMtHybRJAJT8ehfguQuV-11" value="" style="rounded=0;html=1;jettySize=auto;orthogonalLoop=1;fontSize=11;endArrow=block;endFill=0;endSize=8;strokeWidth=1;shadow=0;labelBackgroundColor=none;edgeStyle=orthogonalEdgeStyle;strokeColor=#36393d;fillColor=#eeeeee;fontColor=#000000;" parent="WIyWlLk6GJQsqaUBKTNV-1" edge="1">
          <mxGeometry relative="1" as="geometry">
            <mxPoint x="-520" y="360" as="sourcePoint" />
            <mxPoint x="-519.73" y="390" as="targetPoint" />
          </mxGeometry>
        </mxCell>
        <mxCell id="SMtHybRJAJT8ehfguQuV-12" value="" style="rounded=0;html=1;jettySize=auto;orthogonalLoop=1;fontSize=11;endArrow=block;endFill=0;endSize=8;strokeWidth=1;shadow=0;labelBackgroundColor=none;edgeStyle=orthogonalEdgeStyle;strokeColor=#36393d;fillColor=#eeeeee;fontColor=#000000;exitX=1;exitY=0.5;exitDx=0;exitDy=0;" parent="WIyWlLk6GJQsqaUBKTNV-1" source="gXV8-5lS1U5zjnlFUvk6-14" edge="1">
          <mxGeometry relative="1" as="geometry">
            <mxPoint x="-260.0799999999999" y="260" as="sourcePoint" />
            <mxPoint x="-520" y="370" as="targetPoint" />
            <Array as="points">
              <mxPoint x="-390" y="245" />
              <mxPoint x="-390" y="370" />
            </Array>
          </mxGeometry>
        </mxCell>
        <mxCell id="SMtHybRJAJT8ehfguQuV-16" value="j = j + 1" style="rounded=0;whiteSpace=wrap;html=1;strokeColor=#36393d;fillColor=#eeeeee;fontColor=#000000;" parent="WIyWlLk6GJQsqaUBKTNV-1" vertex="1">
          <mxGeometry x="-580" y="390" width="120" height="40" as="geometry" />
        </mxCell>
        <mxCell id="SMtHybRJAJT8ehfguQuV-17" value="" style="rounded=0;html=1;jettySize=auto;orthogonalLoop=1;fontSize=11;endArrow=block;endFill=0;endSize=8;strokeWidth=1;shadow=0;labelBackgroundColor=none;edgeStyle=orthogonalEdgeStyle;strokeColor=#36393d;fillColor=#eeeeee;fontColor=#000000;" parent="WIyWlLk6GJQsqaUBKTNV-1" edge="1">
          <mxGeometry relative="1" as="geometry">
            <mxPoint x="-520" y="430" as="sourcePoint" />
            <mxPoint x="-519.73" y="460" as="targetPoint" />
          </mxGeometry>
        </mxCell>
        <mxCell id="SMtHybRJAJT8ehfguQuV-18" value="Нет" style="text;html=1;align=center;verticalAlign=middle;resizable=0;points=[];autosize=1;strokeColor=none;fillColor=none;fontColor=#36393d;" parent="WIyWlLk6GJQsqaUBKTNV-1" vertex="1">
          <mxGeometry x="-470" y="220" width="40" height="30" as="geometry" />
        </mxCell>
        <mxCell id="SMtHybRJAJT8ehfguQuV-19" value="Вывод arr[num]" style="shape=parallelogram;perimeter=parallelogramPerimeter;whiteSpace=wrap;html=1;fixedSize=1;strokeColor=#36393d;fillColor=#eeeeee;fontColor=#000000;" parent="WIyWlLk6GJQsqaUBKTNV-1" vertex="1">
          <mxGeometry x="-580" y="560" width="120" height="50" as="geometry" />
        </mxCell>
        <mxCell id="SMtHybRJAJT8ehfguQuV-20" value="" style="rounded=0;html=1;jettySize=auto;orthogonalLoop=1;fontSize=11;endArrow=block;endFill=0;endSize=8;strokeWidth=1;shadow=0;labelBackgroundColor=none;edgeStyle=orthogonalEdgeStyle;strokeColor=#36393d;fillColor=#eeeeee;fontColor=#000000;" parent="WIyWlLk6GJQsqaUBKTNV-1" edge="1">
          <mxGeometry relative="1" as="geometry">
            <mxPoint x="-520.83" y="610" as="sourcePoint" />
            <mxPoint x="-520.83" y="640" as="targetPoint" />
          </mxGeometry>
        </mxCell>
        <mxCell id="kn3eDTNyuo5gu1RkgG4t-0" value="" style="endArrow=none;dashed=1;html=1;rounded=0;exitX=1;exitY=0;exitDx=0;exitDy=0;strokeColor=#36393d;" edge="1" parent="WIyWlLk6GJQsqaUBKTNV-1" source="gXV8-5lS1U5zjnlFUvk6-14">
          <mxGeometry width="50" height="50" relative="1" as="geometry">
            <mxPoint x="-460" y="290" as="sourcePoint" />
            <mxPoint x="-320" y="200" as="targetPoint" />
            <Array as="points">
              <mxPoint x="-490" y="200" />
              <mxPoint x="-460" y="200" />
            </Array>
          </mxGeometry>
        </mxCell>
        <mxCell id="kn3eDTNyuo5gu1RkgG4t-2" value="" style="strokeWidth=1;html=1;shape=mxgraph.flowchart.annotation_1;align=left;pointerEvents=1;direction=east;strokeColor=#36393d;" vertex="1" parent="WIyWlLk6GJQsqaUBKTNV-1">
          <mxGeometry x="-320" y="180" width="10" height="40" as="geometry" />
        </mxCell>
        <mxCell id="kn3eDTNyuo5gu1RkgG4t-3" value="abs-модуль" style="text;html=1;strokeColor=none;fillColor=none;align=center;verticalAlign=middle;whiteSpace=wrap;rounded=0;fontColor=#36393d;" vertex="1" parent="WIyWlLk6GJQsqaUBKTNV-1">
          <mxGeometry x="-320" y="185" width="60" height="30" as="geometry" />
        </mxCell>
      </root>
    </mxGraphModel>
  </diagram>
</mxfile>
